<svg xmlns="http://www.w3.org/2000/svg" xml:space="preserve" baseProfile="tiny" version="1.2" viewBox="0 0 482.4 67"><path fill="#260900" d="M0 41.7v-1.6c.1-.1 1.7-.2 1.7-1.8V3.7C1.7 2 .1 1.9 0 1.9V.3h13.2C19 .3 22.5 9 22.5 21c0 12.7-3.5 20.7-9.3 20.7H0zm9-6.6h3.1c2 0 3.4-6.7 3.4-14.9 0-7.2-1.3-13.3-3.4-13.3H9v28.2zM25.6 40.1c.1-.1 1.7-.2 1.7-1.8V3.7c0-1.6-1.6-1.7-1.7-1.8V.3h17.1l1.6 7.2-1.6.7c-.1-.1-.8-1.3-2.2-1.3h-5.9v9.5h4.1c1.6 0 1.7-1.4 1.8-1.6h1.6v9.8h-1.6c-.1-.1-.2-1.6-1.8-1.6h-4.1v12h5.9c1.3 0 2.1-1.3 2.2-1.4l1.6 1-1.6 7.1H25.6v-1.6zM67.6.3h8.8v1.6c-.1.1-1.7.2-1.7 1.8v34.7c0 1.6 1.6 1.7 1.7 1.8v1.6H65.9v-1.6c.1-.1 1.7-.2 1.7-1.8V17.5l-4.4 15h-2.5l-4.4-15v20.9c0 1.6 1.6 1.7 1.7 1.8v1.6H47.6v-1.6c.1-.1 1.7-.2 1.7-1.8V3.7c0-1.6-1.6-1.7-1.7-1.8V.3h8.8L62 17.1 67.6.3zM80.7 40.1c.1-.1 1.7-.2 1.7-1.8V3.7c0-1.6-1.6-1.7-1.7-1.8V.3h17.1l1.6 7.2-1.6.7c-.1-.1-.8-1.3-2.2-1.3h-5.9v9.5h4.1c1.6 0 1.7-1.4 1.8-1.6h1.6v9.8h-1.6c-.1-.1-.2-1.6-1.8-1.6h-4.1v12h5.9c1.3 0 2.1-1.3 2.2-1.4l1.6 1-1.6 7.1H80.7v-1.6zM111.4.3l6.3 15.4h.2v-12c0-1.6-1.6-1.8-1.7-1.8V.3h10.4v1.6c-.1 0-1.6.1-1.6 1.8v34.7c0 1.6 1.6 1.7 1.7 1.8v1.6h-10.4v-1.6c.1-.1 1.7-.2 1.7-1.8v-8.6l-6.3-15.2h-.2v23.9c0 1.6 1.6 1.7 1.7 1.8v1.6h-10.4v-1.6c.1-.1 1.7-.2 1.7-1.8V3.7c0-1.6-1.6-1.7-1.7-1.8V.3h8.6zM147.7.4l.2-.4h1.7l2.5 8.2-1.6 1c-.8-1.2-1.5-2.4-3.2-2.4h-3.4v31.6c0 1.6 1.6 1.7 1.7 1.8v1.6h-10.9v-1.6c.1-.1 1.7-.2 1.7-1.8V6.8H133c-1.7 0-2.4 1.2-3.2 2.4l-1.6-1 2.5-8.2h1.7l.2.4h15.1zM172.6 41.7c-8.2 0-11.2-11.4-11.2-21.4C161.4 4 168.6.2 173.9.2c3.1 0 4.1 1.2 4.7 1.7l1.6 6.2-1.6.8c-1.3-1.3-2.8-1.9-4-1.9-4.7 0-5.7 7.2-5.7 13.5 0 11.5 3.3 14.5 6.2 14.5 1.4 0 2.8-.8 3.5-1.4l1.6.5-1.6 7.6h-6zM203.7 21.2c0 16.4-3 20.8-10.5 20.8-7.6 0-10.5-4.3-10.5-20.8 0-16.4 3-21 10.5-21s10.5 4.7 10.5 21zm-14.3 0c0 9.1 1.3 14.8 3.8 14.8s3.8-5.6 3.8-14.8c0-8.9-1.3-15.1-3.8-15.1-2.5.1-3.8 6.2-3.8 15.1zM216.1.3l6.3 15.4h.2v-12c0-1.6-1.6-1.8-1.7-1.8V.3h10.4v1.6c-.1.1-1.7.2-1.7 1.8v34.7c0 1.6 1.6 1.7 1.7 1.8v1.6h-10.4v-1.6c.1-.1 1.7-.2 1.7-1.8v-8.6l-6.3-15.2h-.2v23.9c0 1.6 1.6 1.7 1.7 1.8v1.6h-10.4v-1.6c.1-.1 1.7-.2 1.7-1.8V3.7c0-1.6-1.6-1.7-1.7-1.8V.3h8.7zM235.6 41.7v-1.6c.1-.1 1.7-.2 1.7-1.8V3.7c0-1.7-1.6-1.8-1.7-1.9V.3h13.2c5.8 0 9.3 8.7 9.3 20.7 0 12.7-3.5 20.7-9.3 20.7h-13.2zm9-6.6h3.1c2 0 3.4-6.7 3.4-14.9 0-7.2-1.3-13.3-3.4-13.3h-3.1v28.2zM261.2 40.1c.1-.1 1.7-.2 1.7-1.8V3.7c0-1.6-1.6-1.7-1.7-1.8V.3h17.1l1.6 7.2-1.6.7c-.1-.1-.8-1.3-2.2-1.3h-5.9v9.5h4.1c1.6 0 1.7-1.4 1.8-1.6h1.6v9.8h-1.6c-.1-.1-.2-1.6-1.8-1.6h-4.1v12h5.9c1.3 0 2.1-1.3 2.2-1.4l1.6 1-1.6 7.1h-17.1v-1.6zM292 .3l6.3 15.4h.2v-12c0-1.6-1.6-1.8-1.7-1.8V.3h10.4v1.6c-.1.1-1.7.2-1.7 1.8v34.7c0 1.6 1.6 1.7 1.7 1.8v1.6h-10.4v-1.6c.1-.1 1.7-.2 1.7-1.8v-8.6l-6.3-15.2h-.2v23.9c0 1.6 1.6 1.7 1.7 1.8v1.6h-10.4v-1.6c.1-.1 1.7-.2 1.7-1.8V3.7c0-1.6-1.6-1.7-1.7-1.8V.3h8.7zM310.2 34.5l1.6-.7c1.1 1.1 3 1.8 4.7 1.8 2.3 0 4.3-1.1 4.3-3.7 0-6.9-10.6-12.8-10.6-21.2 0-2 1.2-10.4 11.1-10.4 3 0 4.5 1.2 4.5 1.3l1 5.6-1.6.7c-.7-.9-2.2-1.4-3.7-1.4-2 0-4.1.9-4.1 3.2 0 5.8 11.1 12.2 11.1 21.4 0 5.9-4.4 10.7-10.3 10.7h-6.5l-1.5-7.3zM331.7 40.1c.1-.1 1.7-.2 1.7-1.8V3.7c0-1.6-1.6-1.7-1.7-1.8V.3h17.1l1.6 7.2-1.6.7c-.1-.1-.8-1.3-2.2-1.3h-5.9v9.5h4.1c1.6 0 1.7-1.4 1.8-1.6h1.6v9.8h-1.6c-.1-.1-.2-1.6-1.8-1.6h-4.1v12h5.9c1.3 0 2.1-1.3 2.2-1.4l1.6 1-1.6 7.1h-17.1v-1.6zM353.8 41.7v-1.6c.1-.1 1.7-.2 1.7-1.8V3.7c0-1.7-1.6-1.8-1.7-1.9V.3H367c5.8 0 9.3 8.7 9.3 20.7 0 12.7-3.5 20.7-9.3 20.7h-13.2zm9-6.6h3.1c2 0 3.4-6.7 3.4-14.9 0-7.2-1.3-13.3-3.4-13.3h-3.1v28.2zM389.3 41.7v-1.6c.1-.1 1.7-.2 1.7-1.8V3.7c0-1.7-1.6-1.8-1.7-1.9V.3H400c6.7 0 9.6 6 9.6 11.4 0 3.5-1.2 6.7-3.4 8 1.1.3 5.3 3.6 5.3 10.1 0 7.1-3.1 11.8-10.6 11.8h-11.6zm8.8-34.9v10.1h2.8c1.5 0 2.5-2.4 2.5-4.9 0-2.6-1-5.2-2.6-5.2h-2.7zm3.4 28.4c2.2 0 3.2-2.8 3.2-5.5 0-2.8-1.1-5.5-3.2-5.5h-3.4v11h3.4zM435.3 21.2c0 16.4-3 20.8-10.5 20.8-7.6 0-10.5-4.3-10.5-20.8 0-16.4 3-21 10.5-21s10.5 4.7 10.5 21zm-14.3 0c0 9.1 1.3 14.8 3.8 14.8s3.8-5.6 3.8-14.8c0-8.9-1.3-15.1-3.8-15.1-2.5.1-3.8 6.2-3.8 15.1zM454 34.4c1.2 0 2-1.5 2.1-1.6l1.6 1.1-1.6 7.8h-17.2v-1.6c.1-.1 1.7-.2 1.7-1.8V3.7c0-1.6-1.6-1.7-1.7-1.8V.3h10.7v1.6c-.1.1-1.7.2-1.7 1.8v30.7h6.1zM459.9 41.7v-1.6c.1-.1 1.7-.2 1.7-1.8V3.7c0-1.7-1.6-1.8-1.7-1.9V.3h13.2c5.8 0 9.3 8.7 9.3 20.7 0 12.7-3.5 20.7-9.3 20.7h-13.2zm9-6.6h3.1c2 0 3.4-6.7 3.4-14.9 0-7.2-1.3-13.3-3.4-13.3h-3.1v28.2z"/><path fill="#D23200" d="M109.6 63.5v-.4l130.8-3.5h.2l130.7 3.5v.4L240.7 67h-.2l-130.9-3.5z"/></svg>