<svg xmlns="http://www.w3.org/2000/svg" xml:space="preserve" baseProfile="tiny" version="1.2" viewBox="0 0 626.8 93.8"><path d="M6.1.5h10.7l6.7 38c.3 1.6 1.6 1.7 1.7 1.8v1.6h-10v-1.6c.1-.1 1.9-.1 1.9-1.4 0-.1-.1-.2-.1-.4l-.7-3.7c-1 .4-2.5.7-3.7.7-1.1 0-2.9-.2-3.9-.7L8 38.5c0 .1-.1.2-.1.4 0 1.3 1.7 1.4 1.9 1.4v1.6H0v-1.6c.1-.1 1.4-.2 1.7-1.8L7.8 3.9s.1-.2.1-.4c0-1.3-1.6-1.4-1.7-1.4V.5zm6.4 11.7S10.1 28 10 28c.8.4 2 .5 2.7.5.7 0 1.7-.2 2.5-.5l-2.5-15.8h-.2zM51.7 42.2v-1.6c.1-.1 1.7-.2 1.7-1.8V4.2c0-1.7-1.6-1.8-1.7-1.9V.8h10.7c6.7 0 9.6 6 9.6 11.4 0 3.5-1.2 6.7-3.4 8 1.1.3 5.3 3.6 5.3 10.1 0 7.1-3.1 11.8-10.6 11.8H51.7zm8.8-34.9v10.1h2.8c1.5 0 2.5-2.4 2.5-4.9 0-2.6-1-5.2-2.6-5.2h-2.7zm3.3 28.4c2.2 0 3.2-2.8 3.2-5.5s-1.1-5.5-3.2-5.5h-3.4v11h3.4zM114.2 41.5c-8.2 0-11.2-11.4-11.2-21.4C103 3.8 110.2 0 115.5 0c3.1 0 4.1 1.2 4.7 1.7l1.6 6.2-1.6.8c-1.3-1.3-2.8-1.9-4-1.9-4.7 0-5.7 7.2-5.7 13.5 0 11.5 3.3 14.5 6.2 14.5 1.4 0 2.8-.8 3.5-1.4l1.6.5-1.6 7.6h-6zM152.1 42.1v-1.6c.1-.1 1.7-.2 1.7-1.8V4.1c0-1.7-1.6-1.8-1.7-1.9V.7h13.2c5.8 0 9.3 8.7 9.3 20.7 0 12.7-3.5 20.7-9.3 20.7h-13.2zm9-6.6h3.1c2 0 3.4-6.7 3.4-14.9 0-7.2-1.3-13.3-3.4-13.3h-3.1v28.2zM204.9 40.4c.1-.1 1.7-.2 1.7-1.8V3.9c0-1.6-1.6-1.7-1.7-1.8V.6H222l1.6 7.2-1.6.7c-.1-.1-.8-1.3-2.2-1.3h-5.9v9.5h4.1c1.6 0 1.7-1.4 1.8-1.6h1.6v9.8h-1.6c-.1-.1-.2-1.6-1.8-1.6h-4.1v12h5.9c1.3 0 2.1-1.3 2.2-1.4l1.6 1L222 42h-17.1v-1.6zM272.7.6l1.6 7.2s-1.5.7-1.6.7c-.1-.1-.8-1.3-2.2-1.3h-5.9v9.5h4.1c1.6 0 1.7-1.4 1.8-1.6h1.6V25h-1.6c-.1-.1-.2-1.6-1.8-1.6h-4.1v15.2c0 1.6 1.6 1.7 1.7 1.8V42h-10.7v-1.6c.1-.1 1.7-.2 1.7-1.8V4c0-1.6-1.6-1.7-1.7-1.8V.6h17.1zM321.9 37.2c0 .7.2 1.1.4 1.5v.2c-1.9 3.1-5.6 3.3-7.7 3.3-4 0-12.8-.2-12.8-22.2 0-4 .8-19.5 12-19.5 3.1 0 5 1.5 5.6 1.9l1 6.2-1.6.9c-1.4-1.4-2.9-2.3-4.3-2.3-2.9 0-5.5 3.8-5.5 13.3 0 7.5 2 14.6 5.2 14.6h.3V24.9c0-1.6-1.6-1.7-1.7-1.8v-1.6h10.7v1.6c-.1.1-1.7.2-1.7 1.8v12.3zM374.9 40v1.6h-10.7V40c.1-.1 1.7-.2 1.7-1.8V23.5h-6.1v14.6c0 1.6 1.6 1.7 1.7 1.8v1.6h-10.7V40c.1-.1 1.7-.2 1.7-1.8V3.5c0-1.6-1.6-1.7-1.7-1.8V.1h10.7v1.6c-.1.1-1.7.2-1.7 1.8v12.7h6.1V3.5c0-1.6-1.6-1.7-1.7-1.8V.1h10.7v1.6c-.1.1-1.7.2-1.7 1.8v34.7c0 1.6 1.6 1.7 1.7 1.8zM416.8 38.2c0 1.6 1.6 1.7 1.7 1.8v1.6h-10.7V40c.1-.1 1.7-.2 1.7-1.8V3.5c0-1.6-1.6-1.7-1.7-1.8V.1h10.7v1.6c-.1.1-1.7.2-1.7 1.8v34.7zM470.7 36v.2c-1 1.3-5 5.9-10.1 5.9h-7.3l-1.5-7.5 1.6-.4c1 1.4 2.8 1.9 4.1 1.9 2.7 0 5.3-1.5 5.3-4.6V4.1c0-1.7-1.6-1.8-1.7-1.9V.6h10.7v1.6c-.1.1-1.7.2-1.7 1.9v27.4c-.1 3.4.3 4.1.6 4.5zM515.9 4c.1-.3.2-.5.2-.8 0-.8-1.8-1-1.9-1V.6h10.4v1.6c-.1.1-1.8.2-2.5 1.8l-6.3 13.9 7.3 20.8c.5 1.6 1.9 1.7 2 1.8V42H515v-1.6c.1-.1 1-.2 1-.9 0-.2-.1-.5-.2-.9l-5.4-15.9v15.9c0 1.6 1.6 1.7 1.7 1.8V42h-10.7v-1.6c.1-.1 1.7-.2 1.7-1.8V4c0-1.6-1.6-1.7-1.7-1.8V.6H512v1.6c-.1.1-1.7.2-1.7 1.8v12.5L515.9 4zM568.4 34.7c1.2 0 2-1.5 2.1-1.6l1.6 1.1-1.6 7.8h-17.2v-1.6c.1-.1 1.7-.2 1.7-1.8V4c0-1.6-1.6-1.7-1.7-1.8V.6H564v1.6c-.1.1-1.7.2-1.7 1.8v30.7h6.1zM618 .6h8.8v1.6c-.1.1-1.7.2-1.7 1.8v34.7c0 1.6 1.6 1.7 1.7 1.8V42h-10.4v-1.6c.1-.1 1.7-.2 1.7-1.8V17.7l-4.4 15h-2.5l-4.4-15v20.9c0 1.6 1.6 1.7 1.7 1.8V42H598v-1.6c.1-.1 1.7-.2 1.7-1.8V3.9c0-1.6-1.6-1.7-1.7-1.8V.6h8.8l5.6 16.8h.1L618 .6zM9.6 51.8l6.3 15.4h.2v-12c0-1.6-1.6-1.8-1.7-1.8v-1.6h10.4v1.6c-.1.1-1.7.2-1.7 1.8v34.7c0 1.6 1.6 1.7 1.7 1.8v1.6H14.4v-1.6c.1-.1 1.7-.2 1.7-1.8v-8.6L9.8 65.9h-.2v23.9c0 1.6 1.6 1.7 1.7 1.8v1.6H.9v-1.6c.1-.1 1.7-.2 1.7-1.8V55.1c0-1.6-1.6-1.7-1.7-1.8v-1.6h8.7zM73.5 72.4c0 16.4-3 20.8-10.5 20.8-7.6 0-10.5-4.3-10.5-20.8 0-16.4 3-21 10.5-21s10.5 4.6 10.5 21zm-14.3 0c0 9.1 1.3 14.8 3.8 14.8s3.8-5.6 3.8-14.8c0-8.9-1.3-15.1-3.8-15.1-2.4 0-3.8 6.1-3.8 15.1zM105.8 55.4c0-1.7-1.6-1.8-1.7-1.9V52h10.6c5.5 0 10.5 5.2 10.5 14.2 0 9.1-5 14.4-10.5 14.4h-1.6V90c0 1.6 1.4 1.7 1.6 1.8v1.6h-10.6v-1.6c.1-.1 1.7-.2 1.7-1.8V55.4zm8.9 3h-1.6v15.4h1.6c1.2 0 4.4-2.5 4.4-7.7 0-5.8-3.1-7.7-4.4-7.7zM171.9 89.1c.8 0 1.3-1 1.5-1.1l1.6.7c0 .1-.7 5.1-3.8 5.1-1 0-2.2-.5-3.7-1.9-1.4.7-3 1-4.9 1-7.6 0-10.5-4.3-10.5-20.8 0-16.4 3-21 10.5-21s10.5 4.6 10.5 21c0 8-.7 13.1-2.3 16.3.4.5.8.7 1.1.7zm-13.1-17c0 9.1 1.3 14.8 3.8 14.8s3.8-5.6 3.8-14.8c0-8.9-1.3-15.1-3.8-15.1-2.5.1-3.8 6.2-3.8 15.1zM216.7 92.8l-3.1-14.2c-.5.2-1.3.2-1.6.2v10.7c0 1.6 1.4 1.8 1.6 1.8v1.6H203v-1.6c.1-.1 1.7-.2 1.7-1.8V54.9c0-1.7-1.6-1.8-1.7-1.9v-1.6h9.7c3.9 0 11.8 2.5 11.8 13.5 0 9.1-4.1 10.9-4.5 11.5l2.9 13.1c.4 1.6 1.4 1.7 1.6 1.8v1.6h-7.8zm-4.8-35.4v15.1h.7c3.4 0 5.1-3.8 5.1-7.6s-1.7-7.5-5.1-7.5h-.7zM253.8 85.2l1.6-.7c1.1 1.1 3 1.8 4.7 1.8 2.3 0 4.3-1.1 4.3-3.7 0-6.9-10.6-12.8-10.6-21.2 0-2 1.2-10.4 11.1-10.4 3 0 4.5 1.2 4.5 1.3l1 5.6-1.6.7c-.7-.9-2.2-1.4-3.7-1.4-2 0-4.1.9-4.1 3.2 0 5.8 11.1 12.2 11.1 21.4 0 5.9-4.4 10.7-10.3 10.7h-6.5l-1.5-7.3zM320 51.3l.2-.4h1.7l2.5 8.2-1.6 1c-.8-1.2-1.5-2.4-3.2-2.4h-3.4v31.6c0 1.6 1.6 1.7 1.7 1.8v1.6H307V91c.1-.1 1.7-.2 1.7-1.8V57.7h-3.4c-1.7 0-2.4 1.2-3.2 2.4l-1.6-1 2.5-8.2h1.7l.2.4H320zM351.3 87.9v-.2c.5-.6.5-1.4.5-2.6V55.4c0-1.6-1.6-1.7-1.7-1.8V52h10.7v1.6c-.1.1-1.7.2-1.7 1.8v29.8c0 1.7 2.2 2.5 3.5 2.5 1.3 0 3.3-.8 3.3-2.5V55.4c0-1.6-1.6-1.7-1.7-1.8V52H375v1.6c-.1.1-1.7.2-1.7 1.8v29.8c0 1.1.1 2 .5 2.6v.2c-.1.1-4.2 5.8-11.5 5.8s-10.9-5.7-11-5.9zM401.8 54.6c-.2-1.6-1.9-1.7-2-1.8v-1.6h10.8v1.6c-.1.1-1.8.2-1.8 1.2v.2l3.8 25.3h.2l3.8-25.3V54c0-1-1.7-1.1-1.8-1.2v-1.6h10.8v1.6c-.1.1-1.8.2-2 1.8l-6.3 38h-9.1l-6.4-38zM459.1 93.2h-5.3l-5.8-38c-.2-1.6-1.6-1.7-1.7-1.8v-1.6h10.8v1.6c-.1.1-1.7.2-1.7 1.5v.3l3 22.3 3.8-12.5h2.4l3.8 12.5 3-22.3v-.3c0-1.3-1.6-1.4-1.7-1.5v-1.6h10.8v1.6c-.1.1-1.4.2-1.7 1.8l-5.8 38h-5.3l-4.1-13.8h-.5l-4 13.8zM515.2 55.3c.1-.3.2-.6.2-.8 0-1-1.1-1-1.3-1V52h10.6v1.6c-.1.1-1.3.1-1.9 1.8l-6.3 16.2v.1l7.3 18.4c.7 1.7 1.8 1.7 1.9 1.8v1.6h-10.6v-1.6c.1-.1 1.2-.1 1.2-1.1 0-.2 0-.4-.1-.7L512.8 80h-.1l-3.5 10c-.1.3-.1.5-.1.7 0 1 1.1 1 1.2 1.1v1.6h-10.6v-1.6c.1-.1 1.3-.1 1.9-1.8l7.3-18.4v-.1l-6.3-16.2c-.7-1.7-1.8-1.7-1.9-1.8V52h10.6v1.6c-.1.1-1.3.1-1.3 1 0 .2.1.5.2.8l2.5 7.7h.1l2.4-7.8zM557.2 91.8c.1-.1 1.7-.2 1.7-1.8V80l-7-24.7c-.5-1.6-1.7-1.7-1.9-1.8V52h10.2v1.6c-.1.1-1.6.2-1.6 1.3 0 .1 0 .3.1.5l3.8 14.7h.1l3.7-14.7c.1-.2.1-.4.1-.5 0-1.1-1.4-1.2-1.6-1.3V52H575v1.6c-.1.1-1.4.2-1.9 1.8l-7 24.7v10c0 1.6 1.6 1.7 1.7 1.8v1.6h-10.7v-1.7zM605.3 51.5h14.8l1.5 3.5-9.8 31.1h6.3c1.3 0 1.9-1.6 2-1.6l1.6 1-2.2 7.4h-14.8l-2.1-3.4 10-31.3h-5.8c-1.6 0-2 1.6-2.1 1.6l-1.6-1.1 2.2-7.2z"/></svg>