<svg xmlns="http://www.w3.org/2000/svg" xml:space="preserve" baseProfile="tiny" version="1.2" viewBox="0 0 837.2 266.1"><path d="M9.2.7h16l10.1 57.1c.4 2.4 2.3 2.6 2.5 2.7v2.3H22.9v-2.3c.2-.1 2.8-.2 2.8-2.2 0-.2-.1-.4-.1-.5l-1-5.6c-1.5.6-3.8 1-5.5 1s-4.3-.4-5.8-1l-1 5.6c0 .2-.1.4-.1.5 0 2 2.6 2.1 2.8 2.2v2.3H.1v-2.3c.2-.1 2.1-.3 2.5-2.7l9.2-52s.1-.4.1-.5c0-1.9-2.4-2.1-2.6-2.2V.7zm9.7 17.5S15.3 42 15.1 42c1.2.5 3 .8 4 .8 1.1 0 2.5-.3 3.7-.8L19 18.2h-.1zM104.2 62.3V60c.2-.1 2.5-.3 2.5-2.7v-52c0-2.5-2.3-2.7-2.5-2.8V.2h16c10.1 0 14.4 9 14.4 17.1 0 5.2-1.8 10.1-5 12.1 1.7.4 8 5.4 8 15.2 0 10.7-4.6 17.7-15.9 17.7h-17.5zm13.1-52.4V25h4.1c2.2 0 3.8-3.6 3.8-7.3 0-3.9-1.5-7.8-4-7.8h-3.9zm5.1 42.6c3.2 0 4.9-4.1 4.9-8.3 0-4.1-1.6-8.3-4.9-8.3h-5v16.6h5zM220.9 62.3c-12.2 0-16.7-17.1-16.7-32C204.2 5.9 215 .2 222.9.2c4.7 0 6.2 1.8 7 2.5l2.3 9.3-2.3 1.2c-2-2-4.1-2.9-6-2.9-7 0-8.5 10.8-8.5 20.2 0 17.2 4.9 21.8 9.4 21.8 2.2 0 4.2-1.2 5.2-2.2l2.3.8-2.3 11.4h-9.1zM306.9 62.1v-2.3c.2-.1 2.5-.3 2.5-2.7v-52c0-2.5-2.3-2.7-2.5-2.8V0h19.8c8.6 0 13.9 13 13.9 31 0 19.1-5.3 31-13.9 31h-19.8zm13.5-9.9h4.6c3.1 0 5.1-10.1 5.1-22.4 0-10.8-2-19.9-5-19.9h-4.7v42.3zM406.9 60.4c.2-.1 2.5-.3 2.5-2.7v-52c0-2.4-2.3-2.6-2.5-2.7V.7h25.6l2.3 10.8-2.3 1.1c-.1-.2-1.3-2-3.2-2h-8.9v14.2h6.2c2.4 0 2.6-2.2 2.7-2.3h2.3v14.8h-2.3c-.1-.2-.3-2.3-2.7-2.3h-6.2v18h8.9c2 0 3.1-2 3.2-2.2l2.3 1.4-2.3 10.6h-25.6v-2.4zM533 .7l2.3 10.8-2.3 1.1c-.1-.2-1.3-2-3.2-2h-8.9v14.2h6.2c2.4 0 2.6-2.2 2.7-2.3h2.3v14.8h-2.3c-.1-.2-.3-2.3-2.7-2.3h-6.2v22.9c0 2.4 2.3 2.6 2.5 2.7v2.3h-16v-2.3c.2-.1 2.5-.3 2.5-2.7v-52c0-2.4-2.3-2.6-2.5-2.7V.7H533zM636.2 55.5c0 1.1.3 1.7.6 2.3v.2c-2.8 4.7-8.5 4.9-11.6 4.9-5.9 0-19.3-.3-19.3-33.3 0-6 1.2-29.2 18-29.2 4.6 0 7.6 2.3 8.5 2.9l1.5 9.3-2.3 1.4c-2.2-2.2-4.3-3.4-6.4-3.4-4.3 0-8.3 5.8-8.3 20 0 11.2 3.1 21.9 7.8 21.9h.5V37c0-2.4-2.3-2.6-2.5-2.7V32h16v2.3c-.2.1-2.5.3-2.5 2.7v18.5zM738.4 60.4v2.3h-16v-2.3c.2-.1 2.5-.3 2.5-2.7v-22h-9.1v22c0 2.4 2.3 2.6 2.5 2.7v2.3h-16v-2.3c.2-.1 2.5-.3 2.5-2.7v-52c0-2.4-2.3-2.6-2.5-2.7V.6h16V3c-.2.1-2.5.3-2.5 2.7v19.1h9.1V5.7c0-2.4-2.3-2.6-2.5-2.7V.6h16V3c-.2.1-2.5.3-2.5 2.7v52c0 2.4 2.3 2.6 2.5 2.7zM825.1 57.4c0 2.4 2.3 2.6 2.5 2.7v2.3h-16v-2.3c.2-.1 2.5-.3 2.5-2.7v-52c0-2.4-2.3-2.6-2.5-2.7V.4h16v2.3c-.2.1-2.5.3-2.5 2.7v52zM28.4 154.3v.3c-1.5 2-7.5 8.8-15.2 8.8h-11L0 152.1l2.3-.5c1.5 2.1 4.1 2.8 6.2 2.8 4 0 7.9-2.3 7.9-6.8v-41.1c0-2.5-2.3-2.7-2.5-2.8v-2.3h16v2.3c-.2.1-2.5.3-2.5 2.8v41.1c0 5.1.7 6.1 1 6.7zM127.5 106.3c.2-.5.3-.8.3-1.2 0-1.3-2.7-1.4-2.9-1.5v-2.3h15.7v2.3c-.2.1-2.7.3-3.8 2.7l-9.4 20.9 10.9 31.1c.8 2.4 2.8 2.6 3 2.7v2.3h-15.1V161c.2-.1 1.4-.3 1.4-1.4 0-.4-.1-.8-.3-1.4l-8.1-23.8v23.8c0 2.4 2.3 2.6 2.5 2.7v2.3h-16V161c.2-.1 2.5-.3 2.5-2.7v-52c0-2.4-2.3-2.6-2.5-2.7v-2.3h16v2.3c-.2.1-2.5.3-2.5 2.7v18.8l8.3-18.8zM232.5 152.2c1.8 0 3-2.3 3.1-2.4l2.3 1.7-2.3 11.7h-25.8v-2.3c.2-.1 2.5-.3 2.5-2.7v-52c0-2.4-2.3-2.6-2.5-2.7v-2.3h16v2.3c-.2.1-2.5.3-2.5 2.7v46.1h9.2zM333.9 101.5H347v2.3c-.2.1-2.5.3-2.5 2.7v52c0 2.4 2.3 2.6 2.5 2.7v2.3h-15.7v-2.3c.2-.1 2.5-.3 2.5-2.7v-31.3l-6.7 22.5h-3.7l-6.6-22.5v31.3c0 2.4 2.3 2.6 2.5 2.7v2.3h-15.7v-2.3c.2-.1 2.5-.3 2.5-2.7v-52c0-2.4-2.3-2.6-2.5-2.7v-2.3H317l8.4 25.2h.2l8.3-25.2zM418.7 101.7l9.4 23h.3v-18c0-2.4-2.3-2.7-2.5-2.7v-2.3h15.7v2.3c-.2.1-2.5.3-2.5 2.7v52c0 2.4 2.3 2.6 2.5 2.7v2.3h-15.7v-2.3c.2-.1 2.5-.3 2.5-2.7v-13L419 123h-.3v35.8c0 2.4 2.3 2.6 2.5 2.7v2.3h-15.7v-2.3c.2-.1 2.5-.3 2.5-2.7v-52c0-2.4-2.3-2.6-2.5-2.7v-2.3h13.2zM533.9 133.1c0 24.6-4.5 31.1-15.8 31.1s-15.7-6.5-15.7-31.1 4.5-31.5 15.7-31.5c11.3 0 15.8 7 15.8 31.5zm-21.4 0c0 13.7 2 22.1 5.7 22.1 3.8 0 5.7-8.5 5.7-22.1 0-13.4-1.9-22.6-5.7-22.6-3.7 0-5.7 9.2-5.7 22.6zM608.6 106.8c0-2.5-2.3-2.7-2.5-2.8v-2.3h15.8c8.2 0 15.7 7.8 15.7 21.2 0 13.6-7.6 21.6-15.7 21.6h-2.3v14.2c0 2.4 2.2 2.6 2.3 2.7v2.3h-15.8v-2.3c.2-.1 2.5-.3 2.5-2.7v-51.9zm13.3 4.6h-2.3v23h2.3c1.8 0 6.7-3.7 6.7-11.5 0-8.7-4.7-11.5-6.7-11.5zM733.6 158.1c1.2 0 2-1.4 2.3-1.7l2.3 1.1c0 .1-1.1 7.6-5.7 7.6-1.4 0-3.3-.7-5.6-2.8-2.1 1.1-4.5 1.5-7.4 1.5-11.3 0-15.7-6.5-15.7-31.1s4.5-31.5 15.7-31.5c11.3 0 15.8 6.9 15.8 31.5 0 12-1 19.6-3.4 24.4.6.7 1.2 1 1.7 1zm-19.7-25.4c0 13.7 2 22.1 5.7 22.1 3.8 0 5.7-8.5 5.7-22.1 0-13.4-1.9-22.6-5.7-22.6-3.7 0-5.7 9.2-5.7 22.6zM825.7 163.5l-4.7-21.3c-.8.3-2 .3-2.4.3v16c0 2.4 2.2 2.7 2.3 2.7v2.3h-15.8v-2.3c.2-.1 2.5-.3 2.5-2.7v-51.9c0-2.5-2.3-2.7-2.5-2.8v-2.3h14.5c5.8 0 17.6 3.7 17.6 20.2 0 13.6-6.2 16.3-6.7 17.2l4.3 19.6c.5 2.4 2.2 2.6 2.3 2.7v2.3h-11.4zm-7.1-53.1V133h1.1c5 0 7.6-5.7 7.6-11.3 0-5.7-2.6-11.2-7.6-11.2h-1.1zM6.2 254.8l2.3-1.1c1.7 1.7 4.5 2.7 7 2.7 3.4 0 6.5-1.7 6.5-5.5 0-10.3-15.8-19.2-15.8-31.8 0-3.1 1.8-15.7 16.6-15.7 4.5 0 6.7 1.8 6.7 1.9l1.5 8.4-2.3 1c-1.1-1.3-3.2-2.1-5.5-2.1-3.1 0-6.2 1.4-6.2 4.9 0 8.6 16.6 18.3 16.6 32 0 8.8-6.6 16-15.5 16H8.5l-2.3-10.7zM132.8 203.6l.3-.6h2.5l3.8 12.2-2.3 1.5c-1.3-1.8-2.3-3.6-4.9-3.6h-5v47.3c0 2.4 2.3 2.6 2.5 2.7v2.3h-16.4v-2.3c.2-.1 2.5-.3 2.5-2.7v-47.3h-5c-2.6 0-3.6 1.8-4.9 3.6l-2.3-1.5 3.8-12.2h2.5l.3.6h22.6zM207.3 257.3v-.3c.7-.9.8-2.2.8-3.9v-44.7c0-2.4-2.3-2.6-2.5-2.7v-2.3h16v2.3c-.2.1-2.5.3-2.5 2.7v44.7c0 2.6 3.3 3.7 5.3 3.7 1.9 0 4.9-1.3 4.9-3.7v-44.7c0-2.4-2.3-2.6-2.5-2.7v-2.3h16v2.3c-.2.1-2.5.3-2.5 2.7v44.7c0 1.7.1 3 .8 3.9v.3c-.1.2-6.3 8.7-17.2 8.7-10.9 0-16.5-8.5-16.6-8.7zM306.9 208.8c-.4-2.4-2.9-2.6-3.1-2.7v-2.3H320v2.3c-.2.1-2.7.3-2.7 1.8v.3L323 246h.4l5.7-37.9v-.3c0-1.5-2.5-1.7-2.7-1.8v-2.3h16.2v2.3c-.2.1-2.7.3-3.1 2.7l-9.4 57.1h-13.7l-9.5-57zM414.9 266.1h-8l-8.6-57.1c-.4-2.3-2.3-2.6-2.5-2.7V204H412v2.3c-.2.1-2.5.3-2.5 2.3v.5l4.5 33.4 5.7-18.8h3.6l5.7 18.8 4.5-33.4v-.5c0-2-2.3-2.2-2.5-2.3V204h16v2.3c-.2.1-2.2.4-2.5 2.7l-8.6 57.1h-8l-6.1-20.7h-.8l-6.1 20.7zM521.5 208.7c.2-.5.3-.9.3-1.2 0-1.4-1.7-1.4-1.9-1.5v-2.3h15.8v2.3c-.2.1-1.9.2-2.9 2.7l-9.5 24.3v.2l10.9 27.5c1 2.5 2.7 2.6 2.9 2.7v2.3h-15.8v-2.3c.2-.1 1.8-.2 1.8-1.6 0-.3 0-.6-.2-1.1l-5.1-15.2h-.2l-5.1 15.2c-.2.4-.2.8-.2 1.1 0 1.4 1.6 1.5 1.8 1.6v2.3h-15.8v-2.3c.2-.1 1.9-.2 2.9-2.7l10.9-27.5v-.2l-9.5-24.3c-1-2.5-2.7-2.6-2.9-2.7v-2.3h15.8v2.3c-.2.1-1.9.1-1.9 1.5 0 .3.1.7.3 1.2l3.7 11.5h.2l3.7-11.5zM613.1 263.3c.2-.1 2.5-.3 2.5-2.7v-14.9l-10.4-37.1c-.7-2.4-2.6-2.6-2.8-2.7v-2.3h15.3v2.3c-.2.1-2.4.3-2.4 2 0 .2 0 .5.1.7l5.7 22h.2l5.6-22c.1-.3.1-.5.1-.8 0-1.7-2.2-1.8-2.3-1.9v-2.3H640v2.3c-.2.1-2.1.3-2.8 2.7l-10.4 37.1v14.9c0 2.4 2.3 2.6 2.5 2.7v2.3h-16v-2.3zM709 202.9h22.2l2.3 5.3-14.8 46.7h9.5c1.9 0 2.9-2.3 3.1-2.4l2.3 1.4-3.3 11.1h-22.1l-3.2-5 15-47h-8.6c-2.4 0-3 2.3-3.1 2.4l-2.3-1.6 3-10.9z"/></svg>