<?xml version="1.0" encoding="utf-8"?>
<svg version="1.2" baseProfile="tiny" id="Layer_1" xmlns="http://www.w3.org/2000/svg" xmlns:xlink="http://www.w3.org/1999/xlink"
	 x="0px" y="0px" viewBox="0 0 379.4 82.7" xml:space="preserve">
<g>
	<path d="M2.2,50.7v-1.6c0.1-0.1,1.7-0.2,1.7-1.8V12.7c0-1.7-1.6-1.8-1.7-1.9V9.3h13.2c5.8,0,9.3,8.7,9.3,20.7
		c0,12.7-3.5,20.7-9.3,20.7H2.2z M11.2,44.1h3.1c2,0,3.4-6.7,3.4-14.9c0-7.2-1.3-13.3-3.4-13.3h-3.1V44.1z"/>
	<path d="M27.8,49.1c0.1-0.1,1.7-0.2,1.7-1.8V12.7c0-1.6-1.6-1.7-1.7-1.8V9.3h17.1l1.6,7.2l-1.6,0.7c-0.1-0.1-0.8-1.3-2.2-1.3h-5.9
		v9.5H41c1.6,0,1.7-1.4,1.8-1.6h1.6v9.8h-1.6c-0.1-0.1-0.2-1.6-1.8-1.6h-4.1v12h5.9c1.3,0,2.1-1.3,2.2-1.4l1.6,1l-1.6,7.1H27.8V49.1
		z"/>
	<path d="M69.8,9.3h8.8v1.6c-0.1,0.1-1.7,0.2-1.7,1.8v34.7c0,1.6,1.6,1.7,1.7,1.8v1.6H68.2v-1.6c0.1-0.1,1.7-0.2,1.7-1.8V26.5
		l-4.4,15h-2.5l-4.4-15v20.9c0,1.6,1.6,1.7,1.7,1.8v1.6H49.8v-1.6c0.1-0.1,1.7-0.2,1.7-1.8V12.7c0-1.6-1.6-1.7-1.7-1.8V9.3h8.8
		l5.6,16.8h0.1L69.8,9.3z"/>
	<path d="M82.9,49.1c0.1-0.1,1.7-0.2,1.7-1.8V12.7c0-1.6-1.6-1.7-1.7-1.8V9.3H100l1.6,7.2l-1.6,0.7c-0.1-0.1-0.8-1.3-2.2-1.3h-5.9
		v9.5h4.1c1.6,0,1.7-1.4,1.8-1.6h1.6v9.8h-1.6c-0.1-0.1-0.2-1.6-1.8-1.6h-4.1v12h5.9c1.3,0,2.1-1.3,2.2-1.4l1.6,1l-1.6,7.1H82.9
		V49.1z"/>
	<path d="M113.6,9.3l6.3,15.4h0.2v-12c0-1.6-1.6-1.8-1.7-1.8V9.3h10.4v1.6c-0.1,0.1-1.7,0.2-1.7,1.8v34.7c0,1.6,1.6,1.7,1.7,1.8v1.6
		h-10.4v-1.6c0.1-0.1,1.7-0.2,1.7-1.8v-8.6l-6.3-15.2h-0.2v23.9c0,1.6,1.6,1.7,1.7,1.8v1.6h-10.4v-1.6c0.1-0.1,1.7-0.2,1.7-1.8V12.7
		c0-1.6-1.6-1.7-1.7-1.8V9.3H113.6z"/>
	<path d="M149.9,9.4l0.2-0.4h1.7l2.5,8.2l-1.6,1c-0.8-1.2-1.5-2.4-3.2-2.4h-3.4v31.6c0,1.6,1.6,1.7,1.7,1.8v1.6h-10.9v-1.6
		c0.1-0.1,1.7-0.2,1.7-1.8V15.8h-3.4c-1.7,0-2.4,1.2-3.2,2.4l-1.6-1l2.5-8.2h1.7l0.2,0.4H149.9z"/>
	<path d="M174.8,50.7c-8.2,0-11.2-11.4-11.2-21.4c0-16.3,7.2-20.1,12.5-20.1c3.1,0,4.1,1.2,4.7,1.7l1.6,6.2l-1.6,0.8
		c-1.3-1.3-2.8-1.9-4-1.9c-4.7,0-5.7,7.2-5.7,13.5c0,11.5,3.3,14.5,6.2,14.5c1.4,0,2.8-0.8,3.5-1.4l1.6,0.5l-1.6,7.6H174.8z"/>
	<path d="M205.9,30.2c0,16.4-3,20.8-10.5,20.8c-7.6,0-10.5-4.3-10.5-20.8c0-16.4,3-21,10.5-21S205.9,13.9,205.9,30.2z M191.6,30.2
		c0,9.1,1.3,14.8,3.8,14.8c2.5,0,3.8-5.6,3.8-14.8c0-8.9-1.3-15.1-3.8-15.1C193,15.2,191.6,21.3,191.6,30.2z"/>
	<path d="M218.3,9.3l6.3,15.4h0.2v-12c0-1.6-1.6-1.8-1.7-1.8V9.3h10.4v1.6c-0.1,0.1-1.7,0.2-1.7,1.8v34.7c0,1.6,1.6,1.7,1.7,1.8v1.6
		h-10.4v-1.6c0.1-0.1,1.7-0.2,1.7-1.8v-8.6l-6.3-15.2h-0.2v23.9c0,1.6,1.6,1.7,1.7,1.8v1.6h-10.4v-1.6c0.1-0.1,1.7-0.2,1.7-1.8V12.7
		c0-1.6-1.6-1.7-1.7-1.8V9.3H218.3z"/>
	<path d="M237.8,50.7v-1.6c0.1-0.1,1.7-0.2,1.7-1.8V12.7c0-1.7-1.6-1.8-1.7-1.9V9.3H251c5.8,0,9.3,8.7,9.3,20.7
		c0,12.7-3.5,20.7-9.3,20.7H237.8z M246.8,44.1h3.1c2,0,3.4-6.7,3.4-14.9c0-7.2-1.3-13.3-3.4-13.3h-3.1V44.1z"/>
	<path d="M263.5,49.1c0.1-0.1,1.7-0.2,1.7-1.8V12.7c0-1.6-1.6-1.7-1.7-1.8V9.3h17.1l1.6,7.2l-1.6,0.7c-0.1-0.1-0.8-1.3-2.2-1.3h-5.9
		v9.5h4.1c1.6,0,1.7-1.4,1.8-1.6h1.6v9.8h-1.6c-0.1-0.1-0.2-1.6-1.8-1.6h-4.1v12h5.9c1.3,0,2.1-1.3,2.2-1.4l1.6,1l-1.6,7.1h-17.1
		V49.1z"/>
	<path d="M294.2,9.3l6.3,15.4h0.2v-12c0-1.6-1.6-1.8-1.7-1.8V9.3h10.4v1.6c-0.1,0.1-1.7,0.2-1.7,1.8v34.7c0,1.6,1.6,1.7,1.7,1.8v1.6
		H299v-1.6c0.1-0.1,1.7-0.2,1.7-1.8v-8.6l-6.3-15.2h-0.2v23.9c0,1.6,1.6,1.7,1.7,1.8v1.6h-10.4v-1.6c0.1-0.1,1.7-0.2,1.7-1.8V12.7
		c0-1.6-1.6-1.7-1.7-1.8V9.3H294.2z"/>
	<path d="M312.4,43.5l1.6-0.7c1.1,1.1,3,1.8,4.7,1.8c2.3,0,4.3-1.1,4.3-3.7c0-6.9-10.6-12.8-10.6-21.2c0-2,1.2-10.4,11.1-10.4
		c3,0,4.5,1.2,4.5,1.3l1,5.6l-1.6,0.7c-0.7-0.9-2.2-1.4-3.7-1.4c-2,0-4.1,0.9-4.1,3.2c0,5.8,11.1,12.2,11.1,21.4
		c0,5.9-4.4,10.7-10.3,10.7h-6.5L312.4,43.5z"/>
	<path d="M333.9,49.1c0.1-0.1,1.7-0.2,1.7-1.8V12.7c0-1.6-1.6-1.7-1.7-1.8V9.3H351l1.6,7.2l-1.6,0.7c-0.1-0.1-0.8-1.3-2.2-1.3h-5.9
		v9.5h4.1c1.6,0,1.7-1.4,1.8-1.6h1.6v9.8h-1.6c-0.1-0.1-0.2-1.6-1.8-1.6h-4.1v12h5.9c1.3,0,2.1-1.3,2.2-1.4l1.6,1l-1.6,7.1h-17.1
		V49.1z"/>
	<path d="M356,50.7v-1.6c0.1-0.1,1.7-0.2,1.7-1.8V12.7c0-1.7-1.6-1.8-1.7-1.9V9.3h13.2c5.8,0,9.3,8.7,9.3,20.7
		c0,12.7-3.5,20.7-9.3,20.7H356z M365,44.1h3.1c2,0,3.4-6.7,3.4-14.9c0-7.2-1.3-13.3-3.4-13.3H365V44.1z"/>
	<path fill="#FF3333" d="M57.8,69.5c5.8-0.2,49.4-1.6,131.2-3.6c20,0.2,65.2,1.6,135.2,3.6c-9.6,0.5-54.2,2-134.8,3.6
		C156.7,72.6,112.9,71.1,57.8,69.5z"/>
</g>
</svg>
